<svg width="223" height="32" xmlns="http://www.w3.org/2000/svg">
	<style>
		:root
		{
			fill: #FFFFFF;
		}

		rect.background /*GitHub's dark colourblind preview's orange*/
		{
			fill: #D69900;
			stroke: #FFFFFF26;
			stroke-width: 2px;
		}

		path.tux_black
		{
			fill: #000000;
		}
		path.tux_white
		{
			fill: #FFFFFF;
		}
		path.tux_orange
		{
			fill: #FFC010;
		}

		text /*GitHub's font*/
		{
			font-family: -apple-system, BlinkMacSystemFont, "Segoe UI", "Noto Sans", Helvetica, Arial, sans-serif, "Apple Color Emoji", "Segoe UI Emoji";
			font-size: 14px;
			font-weight: 500;
		}

		@media (prefers-color-scheme: light)
		{
			rect.background /*GitHub's dark theme's yellow label text colour*/
			{
				fill: #D3910D;
				stroke: #1F232826;
			}
		}
	</style>

	<!--Orange background-->
	<clipPath id="background-clip">
		<rect x="0" y="0" width="100%" height="100%" rx="6"/>
	</clipPath>
	<rect x="0" y="0" width="100%" height="100%" rx="6" class="background" clip-path="url(#background-clip)"/>

	<!--Tux-->
	<g transform="translate(8,8)">
		<path class="tux_black" d="M 0,16 Q 1,15 1,14 C 1,12 0,12 0,6 A 8,6 0 0 1 16,6 C 16,12 15,12 15,14 Q 15,15 16,16 Z"/>
		<path class="tux_white" d="M 2.75,8 A 1.625,3 0 0 1 6,8 L 6,9 A 1.625,2 0 0 1 2.75,9 Z M 3.75,9 A 0.625,1.5 0 0 0 5,9 L 5,8.5 A 0.625,1.5 0 0 0 3.75,8.5 Z"/>
		<path class="tux_white" d="M 8,8 A 2,3 0 0 1 12,8 L 12,9 A 2,2 0 0 1 8,9 Z M 9,9 A 1,1.5 0 0 0 11,9 L 11,8.5 A 1,1.5 0 0 0 9,8.5 Z"/>
		<path class="tux_white" d="M 2,16 Q 3,15 3,14 L 3,11 11,11 11,14 Q 11,15 12,16 Z"/>
		<path class="tux_orange" d="M 10,10 Q 12,10 12,11 C 12,13 8,14 6,14 C 4,14 2,12 2,11 Q 2,10 3,10 C 5,10 5,9 7,9 C 8,9 9,10 10,10"/>
	</g>

	<!--Text-->
	<text x="28" y="22" textLength="182">Download for Linux/SteamOS</text>
</svg>
